<svg version="1.1" id="Layer_1" xmlns="http://www.w3.org/2000/svg" xmlns:xlink="http://www.w3.org/1999/xlink" x="0px" y="0px"
	 width="100%" viewBox="0 0 720 720" enable-background="new 0 0 720 720" xml:space="preserve">
<path fill="#000000" opacity="1.000000" stroke="none" 
	d="
M230.473206,384.659912 
	C231.107315,394.908264 231.728882,404.697754 232.271713,414.491608 
	C233.054306,428.611450 234.685791,442.646759 236.381180,456.676239 
	C236.832138,460.407928 239.239288,461.900604 242.690460,461.403839 
	C282.308563,455.701111 322.138184,453.276062 362.139526,453.978333 
	C375.065247,454.205231 387.975525,455.312347 400.606873,456.001221 
	C401.906738,457.772888 400.929565,458.874359 400.301636,460.004730 
	C396.738098,466.420074 393.508209,473.004364 390.858215,479.842072 
	C389.789825,482.598816 388.305542,483.588135 385.285309,483.467957 
	C373.971100,483.017792 362.645874,482.828094 351.323639,482.597900 
	C327.153809,482.106476 303.044739,483.445496 278.979401,485.437866 
	C268.550354,486.301270 258.186188,487.964020 247.799652,489.318268 
	C244.056641,489.806274 242.138397,491.600433 243.046432,495.768585 
	C250.771240,531.228210 261.287445,565.667847 280.303070,596.945984 
	C289.809296,612.582581 300.919647,626.818481 316.581482,636.956726 
	C335.607330,649.272705 354.709991,649.139954 373.914154,637.594971 
	C379.051208,634.506714 383.960144,631.039246 388.310242,626.849792 
	C389.493805,625.709900 390.651031,624.440186 393.128571,624.116577 
	C400.319855,638.983093 409.184082,653.125366 420.504395,666.564697 
	C410.324493,669.501953 401.151001,670.974060 391.948456,672.149048 
	C369.106262,675.065247 346.233368,675.975464 323.180420,674.450500 
	C279.905365,671.587952 238.856308,660.802917 200.249603,641.129089 
	C142.081284,611.486694 96.854004,568.106506 64.768715,511.287781 
	C45.340950,476.883820 32.996613,439.970795 27.507444,400.752441 
	C25.051565,383.205933 24.132738,365.620270 24.715120,347.969391 
	C26.600651,290.822571 42.576355,237.895294 72.965942,189.415375 
	C100.741539,145.105484 137.464249,109.817841 182.176224,82.968582 
	C217.834869,61.555786 256.550385,48.124275 297.643982,41.868038 
	C324.557800,37.770584 351.669922,36.755600 378.770752,39.804478 
	C446.755890,47.452885 506.814056,73.418190 558.366028,118.557777 
	C604.807983,159.222946 636.593384,209.361038 654.434143,268.389618 
	C665.286621,304.296539 668.896118,341.087921 667.070801,378.422180 
	C666.619690,387.649445 666.291321,397.015503 663.824036,406.287048 
	C660.294128,405.925568 658.307739,403.172150 655.668396,401.655334 
	C650.904480,398.917511 646.395935,395.718292 641.549805,393.146820 
	C638.348999,391.448425 637.537903,389.249451 637.893311,385.866821 
	C639.427551,371.266205 639.367859,371.267273 624.760315,371.273438 
	C582.765564,371.291168 540.770813,371.299530 498.776031,371.319061 
	C491.659210,371.322357 490.814758,372.136414 490.360168,379.256317 
	C490.266418,380.724976 490.617554,382.513702 488.936859,383.234619 
	C479.977997,387.077362 471.179291,391.265778 461.715271,396.391418 
	C461.715271,389.796234 461.742401,384.191589 461.707672,378.587402 
	C461.672729,372.942871 460.233978,371.386292 454.642303,371.385925 
	C382.650940,371.381409 310.659546,371.399872 238.668198,371.455353 
	C232.000488,371.460480 230.339157,373.247864 230.364639,379.705505 
	C230.370544,381.204742 230.404465,382.703857 230.473206,384.659912 
M421.983063,136.425949 
	C420.636658,133.747391 419.372620,131.023575 417.930603,128.397537 
	C407.678589,109.728241 396.045197,92.161133 378.482391,79.371460 
	C357.886078,64.372719 338.250275,63.751850 316.667938,77.167168 
	C299.369995,87.919357 288.189056,104.043488 278.205750,121.068825 
	C260.675323,150.964844 250.357422,183.562531 243.330215,217.306137 
	C241.985519,223.763214 243.380112,225.720871 249.800797,226.589050 
	C275.534515,230.068680 301.398468,232.102280 327.347443,232.595078 
	C359.648956,233.208527 391.911285,232.124344 424.054352,228.613541 
	C430.985077,227.856537 437.902649,226.924896 444.788788,225.836441 
	C448.209106,225.295776 450.078400,223.269623 449.247833,219.456100 
	C443.069092,191.085846 434.818939,163.395599 421.983063,136.425949 
M404.219604,259.074402 
	C389.256775,259.723511 374.299347,260.599457 359.329559,260.956451 
	C345.014496,261.297852 330.697540,260.886230 316.373993,260.437500 
	C292.395569,259.686310 268.553162,257.636597 244.782318,254.577545 
	C238.120193,253.720215 236.236542,254.899979 235.445068,261.504303 
	C232.552429,285.641602 231.198730,309.891998 230.397827,334.173401 
	C230.133728,342.179718 231.804474,343.675720 240.021957,343.646973 
	C278.678955,343.511627 317.334930,343.785248 355.993744,343.183929 
	C388.483093,342.678528 420.984436,342.949097 453.480377,342.857788 
	C460.442902,342.838226 461.834167,341.546600 461.673889,334.736664 
	C461.442749,324.915039 461.250000,315.082367 460.606598,305.282959 
	C459.615417,290.186676 458.261444,275.117340 456.168457,260.119263 
	C455.531708,255.556366 453.402435,253.754028 448.810974,254.275803 
	C434.265839,255.928787 419.703766,257.432465 404.219604,259.074402 
M142.499908,343.663910 
	C157.659454,343.666077 172.819000,343.669067 187.978546,343.670135 
	C201.834198,343.671112 202.554794,343.041351 202.589828,329.053955 
	C202.652451,304.058929 205.102203,279.241699 208.112564,254.473953 
	C208.576599,250.656021 207.119614,248.799652 203.917191,247.725662 
	C202.188843,247.146027 200.389893,246.756760 198.602753,246.375473 
	C164.497635,239.099030 131.389847,228.707184 99.422935,214.725891 
	C93.580757,212.170685 92.322563,212.621994 89.071327,218.362228 
	C82.578308,229.826004 76.984169,241.735443 72.287758,254.030716 
	C62.627052,279.322571 56.194500,305.376648 54.102219,332.454895 
	C53.364246,342.005707 54.569508,343.663879 64.036201,343.666626 
	C89.857430,343.674103 115.678650,343.665619 142.499908,343.663910 
M206.454773,467.071655 
	C208.569412,465.401031 208.535446,463.313599 208.226440,460.792389 
	C206.892166,449.905151 205.854828,438.981842 204.654007,428.077789 
	C202.884888,412.013672 203.178436,395.837433 201.973831,379.745789 
	C201.421539,372.367981 200.965591,372.121948 193.458389,372.136627 
	C173.967087,372.174744 154.475754,372.208435 134.984421,372.226837 
	C110.495247,372.249939 86.006027,372.237885 61.516899,372.281311 
	C54.818195,372.293213 53.136227,374.581665 53.865482,381.218079 
	C54.609261,387.986664 55.188755,394.762115 56.219433,401.507263 
	C61.483078,435.954376 72.936882,468.204071 90.112419,498.484833 
	C92.456696,502.617859 95.263107,503.582916 99.583366,501.541656 
	C121.323013,491.269989 144.044434,483.723511 167.241531,477.551880 
	C180.086258,474.134583 192.962921,470.837219 206.454773,467.071655 
M485.383850,267.241547 
	C488.181610,289.168365 489.921967,311.176300 490.344910,333.279816 
	C490.495605,341.154785 491.886597,342.668121 499.625183,342.670197 
	C528.933838,342.678131 558.242432,342.665009 587.551086,342.661591 
	C601.872375,342.659912 616.193848,342.709625 630.514771,342.640533 
	C636.713196,342.610596 639.150574,339.539886 638.316650,333.378326 
	C637.381653,326.469269 636.785156,319.507141 635.640259,312.634949 
	C630.068420,279.188721 619.064697,247.610565 602.734924,217.885910 
	C600.528198,213.869125 597.810242,212.596909 593.328369,214.661026 
	C576.532043,222.396561 559.059021,228.356888 541.461121,233.971786 
	C524.491089,239.386353 507.093933,243.114105 489.791534,247.222244 
	C484.066864,248.581467 483.225708,249.883804 484.024628,255.454636 
	C484.543365,259.071686 484.909637,262.710632 485.383850,267.241547 
M566.020691,195.464233 
	C570.035828,193.845047 574.097900,192.331375 578.052368,190.575653 
	C581.673340,188.968018 582.698547,186.440811 580.079956,183.041229 
	C579.266541,181.985214 578.485474,180.903717 577.654785,179.861664 
	C537.242249,129.165695 485.771240,95.036247 423.557678,76.995926 
	C421.576965,76.421570 419.628082,75.744568 417.359283,76.523506 
	C417.809174,77.372765 417.973083,77.862350 418.279449,78.234795 
	C438.894226,103.296944 452.553955,132.055191 463.037750,162.494049 
	C468.841980,179.346130 473.113251,196.623703 477.062744,213.980942 
	C477.995300,218.079453 479.870117,220.097290 484.373657,219.190674 
	C512.005066,213.628174 539.002014,205.904480 566.020691,195.464233 
M155.642319,137.167953 
	C139.790634,150.281372 125.526527,164.921722 113.260231,181.458054 
	C109.225220,186.897720 109.690849,188.311417 115.847099,190.964935 
	C145.145981,203.593567 175.568665,212.612671 206.716187,219.323761 
	C211.138107,220.276505 213.757370,218.838699 214.726685,214.293289 
	C215.939362,208.606659 217.303284,202.950821 218.682755,197.301437 
	C229.090881,154.676804 245.024170,114.560310 272.179352,79.538544 
	C272.733337,78.824066 273.748810,78.110481 272.391876,76.040932 
	C229.215897,87.450600 190.385010,107.562935 155.642319,137.167953 
M221.689499,527.610229 
	C219.624527,519.219604 217.557938,510.829346 215.495087,502.438202 
	C214.087189,496.711182 212.338898,495.588043 206.647308,496.862701 
	C203.241379,497.625458 199.854813,498.474396 196.456177,499.270233 
	C169.529312,505.575958 143.281143,514.017395 117.672478,524.437439 
	C110.264297,527.451782 109.933044,528.962585 114.702103,535.136841 
	C125.114395,548.617065 136.866104,560.836792 149.592133,572.131653 
	C184.121964,602.778198 223.187256,625.141113 268.041901,636.914795 
	C269.591492,637.321533 271.123657,638.264954 273.170532,636.733215 
	C272.219513,635.254517 271.287354,633.747559 270.299072,632.278320 
	C265.468964,625.097290 260.331299,618.104431 255.837128,610.719666 
	C240.228714,585.071777 230.013977,557.158447 221.689499,527.610229 
z"/>
<path fill="#000000" opacity="1.000000" stroke="none" 
	d="
M471.884705,417.827576 
	C501.399963,399.470062 533.327576,390.923645 567.461426,394.020203 
	C616.388977,398.458832 655.778564,420.662750 684.087097,461.379425 
	C729.490295,526.683655 717.614624,616.951599 656.959045,668.209534 
	C630.972473,690.169861 601.069092,702.727539 567.162842,705.368042 
	C523.952332,708.733154 486.021301,695.537598 453.447235,667.344849 
	C423.960297,641.824036 406.245544,609.312073 401.024780,570.757812 
	C395.379272,529.066895 405.165436,490.823456 430.217560,456.707397 
	C441.597992,441.209442 455.525513,428.492584 471.884705,417.827576 
M593.393677,483.893616 
	C606.048584,471.291565 618.703552,458.689514 631.506592,445.939972 
	C629.095581,444.050446 627.199646,444.395447 625.414185,444.391937 
	C609.248840,444.360229 593.081543,444.501678 576.919250,444.276398 
	C572.409119,444.213531 569.170166,445.535004 565.952881,448.764587 
	C535.846252,478.985779 505.982788,509.453186 475.152222,538.947876 
	C470.614746,543.288757 465.793060,547.423706 461.865326,552.916504 
	C472.191254,562.954895 482.264160,573.030884 493.608582,582.864624 
	C526.935547,549.813538 559.916565,517.105530 593.393677,483.893616 
M556.693787,614.072266 
	C561.593079,609.083862 566.382629,603.981812 571.411133,599.127380 
	C589.863953,581.313354 608.405212,563.591064 626.878113,545.797852 
	C628.123047,544.598694 629.902405,543.618347 629.734619,541.451111 
	C628.222290,539.881287 626.292847,540.211548 624.511353,540.207214 
	C606.852478,540.164001 589.193176,540.205627 571.534546,540.118652 
	C568.816162,540.105225 566.836792,541.042725 564.942261,542.940979 
	C547.644958,560.272583 530.319641,577.576721 512.891663,594.776611 
	C510.447113,597.189087 510.221313,598.754089 512.815369,601.227295 
	C530.053223,617.661987 547.189819,634.203003 564.303528,650.767212 
	C566.461548,652.855957 568.732910,653.963745 571.816040,653.942688 
	C590.307251,653.816467 608.799438,653.833252 627.291199,653.767151 
	C628.397400,653.763184 629.633240,654.079834 630.604187,653.096497 
	C630.853455,651.504028 629.601624,650.691956 628.713928,649.830200 
	C613.058716,634.631287 597.338562,619.499084 581.709412,604.273560 
	C579.678467,602.295044 578.111450,602.627747 576.120056,604.170654 
	C570.854248,608.250549 564.650085,610.940979 559.547424,615.290344 
	C558.427368,616.245056 556.787964,617.996094 556.693787,614.072266 
z"/>
</svg>